<?xml version="1.0" standalone="no"?>
<!DOCTYPE svg PUBLIC "-//W3C//DTD SVG 1.1//EN" "http://www.w3.org/Graphics/SVG/1.1/DTD/svg11.dtd">
<svg width="100%" height="100%" viewBox="0 0 1024 1024" version="1.1" xmlns="http://www.w3.org/2000/svg" xmlns:xlink="http://www.w3.org/1999/xlink" xml:space="preserve" style="fill-rule:evenodd;clip-rule:evenodd;stroke-linejoin:round;stroke-miterlimit:1.41421;">
    <g transform="matrix(2.68939,0,0,2.68939,-843.069,-513.401)">
        <g transform="matrix(1.63461,0,0,1.63461,-545.498,-262.592)">
            <path d="M679.728,351.534L606.728,351.534C604.796,351.534 603.228,349.966 603.228,348.034L603.228,341.034C603.228,339.103 604.796,337.535 606.728,337.534L679.728,337.534C681.659,337.535 683.228,339.103 683.228,341.034L683.228,348.034C683.228,349.966 681.66,351.534 679.728,351.534Z" style="fill:rgb(226,234,234);"/>
        </g>
        <g transform="matrix(0.551385,0,0,0.551385,264.543,124.359)">
            <circle cx="427.878" cy="210.894" r="15.438" style="fill:rgb(170,82,241);"/>
        </g>
        <g transform="matrix(0.321671,0,0,0.321671,359.589,155.014)">
            <circle cx="427.878" cy="210.894" r="15.438" style="fill:rgb(170,82,241);"/>
        </g>
        <g transform="matrix(0.188004,0,0,0.188004,433.22,221.307)">
            <circle cx="427.878" cy="210.894" r="15.438" style="fill:rgb(170,82,241);"/>
        </g>
        <g transform="matrix(0.711099,0,0,0.711099,211.422,60.7582)">
            <circle cx="427.878" cy="210.894" r="15.438" style="fill:rgb(170,82,241);"/>
        </g>
        <g transform="matrix(1,0,0,1,0,4)">
            <path d="M488.271,281.896C487.053,279.688 486.359,277.151 486.359,274.453C486.359,265.933 493.276,259.015 501.796,259.015C510.317,259.015 517.234,265.933 517.234,274.453C517.234,277.151 516.54,279.688 515.322,281.896L488.271,281.896Z" style="fill:rgb(170,82,241);"/>
        </g>
        <path d="M379.591,476.995C381.163,477.006 382.735,477.035 384.306,477.078C391.144,477.268 397.973,477.75 404.776,478.464C411.97,479.22 419.137,480.235 426.266,481.458C428.919,481.914 431.567,482.4 434.21,482.91C435.117,483.086 436.024,483.264 436.929,483.446C440.981,484.262 445.03,485.095 449.08,485.917C456.026,487.327 462.973,488.726 469.93,490.078C494.402,494.837 519.027,499.046 543.891,501.103C547.526,501.404 551.164,501.658 554.805,501.862C569.129,502.665 583.503,502.671 597.817,501.662C604.949,501.159 612.065,500.406 619.143,499.39C626.213,498.376 633.246,497.099 640.221,495.561C641.988,495.172 643.752,494.765 645.512,494.342C650.582,500.979 653.702,505.062 653.702,505.062C653.702,505.062 667.283,521.31 658.63,540.209C651.634,555.488 635.549,560.591 606.487,560.591L405.368,560.591C376.306,560.591 360.221,555.488 353.225,540.209C344.572,521.31 358.153,505.062 358.153,505.062C358.153,505.062 367.236,493.176 379.591,476.995Z" style="fill:rgb(170,82,241);"/>
        <path d="M384.114,471.071C402.68,446.75 426.475,415.556 438.755,399.358C460.69,370.426 459.068,352.176 459.068,352.176L459.068,317.272L459.051,316.338L501.608,316.195L501.608,316.166L505.928,316.181L510.247,316.166L510.247,316.195L552.804,316.338L552.787,317.272L552.787,352.176C552.787,352.176 551.165,370.426 573.1,399.358C588.756,420.009 623.129,465.036 641.522,489.118C635.483,490.509 629.399,491.7 623.282,492.69C616.692,493.755 610.065,494.586 603.417,495.191C590.237,496.39 576.985,496.69 563.76,496.256C559.808,496.126 555.858,495.931 551.912,495.677C548.684,495.47 545.459,495.223 542.237,494.94C517.212,492.744 492.437,488.388 467.806,483.549C462.692,482.545 457.583,481.517 452.475,480.483C447.871,479.55 443.27,478.609 438.667,477.675C435.762,477.09 432.852,476.532 429.936,476.01C422.423,474.666 414.869,473.544 407.283,472.7C399.974,471.888 392.635,471.333 385.285,471.104C384.895,471.092 384.504,471.081 384.114,471.071ZM541.928,398.861C548.401,398.861 553.657,404.117 553.657,410.59C553.657,417.064 548.401,422.32 541.928,422.32C535.454,422.32 530.198,417.064 530.198,410.59C530.198,404.117 535.454,398.861 541.928,398.861ZM531.258,381.115C534.021,381.115 536.264,383.359 536.264,386.122C536.264,388.885 534.021,391.128 531.258,391.128C528.495,391.128 526.251,388.885 526.251,386.122C526.251,383.359 528.495,381.115 531.258,381.115Z" style="fill:rgb(226,234,234);"/>
    </g>
</svg>
